<svg class="Header-logoImage" itemprop="image"
  xmlns="http://www.w3.org/2000/svg" viewBox="0 0 356.6 89">
  <style>.st0{fill:#312418}.st3{fill:#312418}</style>
  <path class="st0" d="M297.8 47.4h5.5v-2.6h-5.5v-2.3h5.5v-2.9h-8.4v13.1h2.9zM278.3 47.4h5.6v-2.6h-5.6v-2.3h5.6v-2.9h-8.5v13.1h2.9zM259.6 39.3c-3.8 0-6.9 3.1-6.9 6.9 0 3.8 3.1 6.9 6.9 6.9 3.8 0 6.9-3.1 6.9-6.9-.1-3.8-3.1-6.9-6.9-6.9zm0 10.9c-2.2 0-4-1.8-4-4s1.8-4 4-4 4 1.8 4 4c-.1 2.2-1.8 4-4 4zM242.3 48.2c-.7 1.2-2 2-3.4 2-2.2 0-4-1.8-4-4s1.8-4 4-4c1.5 0 2.8.8 3.4 2l2.2-1.9c-1.2-1.8-3.3-2.9-5.6-2.9-3.8 0-6.9 3.1-6.9 6.9 0 3.8 3.1 6.9 6.9 6.9 2.3 0 4.4-1.2 5.6-2.9l-2.2-2.1zM323.4 49.9h-6v-2.5h6v-2.6h-6v-2.3h6v-2.9h-8.9v13.1h8.9zM343.8 49.9h-6v-2.5h6v-2.6h-6v-2.3h6v-2.9h-8.9v13.1h8.9z"></path>
  <path d="M73.3 42.8c2.5-.2 3.1-1.2 2.8-2.9-.3-1.8-2.5-2.3-3.7-2-1.2.2-2.2.8-2.2 2 0 1 .6 3 3.1 2.9z" fill-rule="evenodd" clip-rule="evenodd" fill="#312418"></path>
  <path class="st0" d="M92.4 42.4c-.4 0-.6-.3-.5-.6 0 0 2.6-5.7 2.8-6.3.3-.9-.2-1.7-2-1.1-4 1.4-10.7 16.7-14.6 16.5-2.9-.1-2.2-6.6-5.6-6.2-2.7.3-4.9 7.3-6.9 6.6-2.7-.9-2.4-4.3-2.4-6.4 0-2.1 1.1-3.9-7-1.6-.3-.4-1-1.3-2.2-1.7-1.1-.3-2.2.3-4.1 2.1-1.2 1.2-.9 1.7 1.3 2.6-.5 1.4-2.5 5.6-5.8 4.8 0 0 1.3-3.8 1.1-5.7-.2-1.2-.6-1.7-1.7-1.8-1.4-.2-1.5.7-2.8.5-.9-.1-1.1-1.1-3.3-.8-2.7.3-3.8 1.4-4.5 2.2-1 1.2-1.6 2.7-1.5 3.3-1.8.9-9.5 2.8-12.5 0-2.7-2.4.4-10.6 8.3-13.3 9.6-3.3 1.3 4 6.3 3.6.6-.1 1.7-1.2 1.8-1.4 7.1-7.6-9.2-8.6-19 .5-8.3 7.7-4.7 16.1 4.8 16.5 6.6.3 9.9-1.4 11.4-2.5 2.9 3.3 8.7 1 8.7 1s2.2 1.5 4.9.9c6.2-1.3 7.3-7 8.1-7.7C56 46 58 46 58 46s.8 4.1 3.3 6.6c1.2 1.2 4.2 3 7.4 1.9 3.8-1.2 2.8-3.8 4-3.8 2.2-.1.3 3.6 6.2 3.7 3.6.1 6.8-2.3 6.8-2.3s.5 1.2 5.9 1.3c5.4.1 8.4-2.3 9.1-4.4 2.1-6.4-5.7-6.7-8.3-6.6zm-50.7 8.4c-.8.6-2.8.5-3.8-.4-.7-.6-1.1-1.5-.6-2.3.4-.7 2.3-2.4 4.4-.6 1 .9.1 3.2 0 3.3zm53.4-2.3c-1.5.9-4.8 2.4-6.7.6-1.6-1.5 2.2-4.4 5.8-4.1 3.2.2 2.4 2.6.9 3.5zM139.8 49.8c-.6 0-1.5.7-2.2.6-.7-.1-1.3-2.3-1.1-4.2.1-1.6.3-3-1.8-3-4.8 0-2.6 7.6-7.2 7.5-3.9-.1-.9-8-4.2-8.4 0 0-2-.3-5.9 2.1-.7.4-1.1.1-1.3-.2 0 0-2.1-3.4-6.4-2.3-6.1 1.5-7.1 7-7.8 8.6-.4 1-1.9 1.5-2.1 2.1-.2.6 1.1 1.5 2 1.5.9 0 2-1.3 3.5-1 1.5.3 3.8 2.4 7.4 1.2 3.7-1.3 4.6-5.5 4.6-5.5s3.1-2.9 4-1.7c.7.8-.2 4.1 1.5 5.8 1 .9 4.2 1.7 6.6 1.4 3.1-.5 4.1-2.2 4.1-2.2s1 1.3 3.5.9c2.6-.4 3.8-2.1 3.8-2.4.1-.5-.4-.8-1-.8zM113 48.2c-.6 2-4.6 5.2-5.7 1.3-1.1-3.9 2.2-5.3 3.7-5 1.6.3 2.6 1.8 2 3.7zM223.6"></path>
  <path d="M208.7 66.5l-8.5-45h-42.7l-8.5 45c-.9 3.9 1 8 4.4 9.3l22.6 9.1c.8.3 1.5.5 2.3.5.7 0 1.5-.1 2.2-.4l23.6-9.1c3.5-1.3 5.4-5.4 4.6-9.4z" fill="#79afbc"></path>
  <path class="st3" d="M194.1 36.1c0-.1-.1-.2-.1-.3l-.7-.7c-.3-.3-.6-.8-.5-1.3 0-.3.1-.6.2-.9l.4-.7c.1-.1.1-.2.1-.4 0-.4-.3-.8-.8-.8h-.3c-.8.3-1.7.4-2.7.5-2.5.3-5.2.2-8.1-.3-14.3-2.8-16.4-9.5-15.9-12.5.2-1.2.8-2.2 1.7-3.1 2-2 6.4-3.3 11.6-3 1.2 0 3.5.4 3.5.4.3 0 .5-.1.6-.3.3-.6-.8-1-1.6-1.6-2.2-1.7 3.5-3 3.7-3.7.4-1.1-2.2-.9-3.4-1.5-1.8-1.1 2.5-2.9 2.8-3.2.2-.2.1-.5-.3-.5-12.6-.3-22.2 8.3-21.8 17.3.5 9.6 12.9 17.2 27.8 17 .9 0 2.9 0 3.4-.4.3.2.4.1.4 0zM197.5 42c0-.8-.6-1.4-1.4-1.5l-16-2.2h-.1c-.3 0-.5.2-.5.5v.3c0 1.7 1.2 3 2.8 3.3v2.2c0 1.5 1.2 2.7 2.7 2.7h.3l10.3-1.2c.7-.1 1.2-.6 1.3-1.2l.6-2.6V42zM186.9 55.5c.6-.2.9-.8.8-1.4 0-.2-.1-.4-.2-.5-1.1-2-3.5-5.7-10.6-3.4 0 0-13.4 4.4-13.8 10.9-11.9 5.3-22.6 12.9-31.5 22.1l7.1 2.2s.7.2 1.2.2 1-.3 1.4-.7c12.6-13.8 24.1-23.1 45.3-29.3.1-.1.3-.1.3-.1z"></path>
  <path class="st3" d="M201.5 54.7c-18.9 2.2-34.3 11-34.3 11-.2.1-.4.4-.4.7 0 .2.2.5.5.8 2.3 2.6 5.6 4.2 19.1-1.5 2.4-1 3.6-2.7 3.5-5.1 0 0 4-1.1 9.6-1.2 10.2-.2 14 1.4 19.2 2.1h.5c.8-.1 1.4-.5 1.8-1.2l2.5-6.1c-5.7-.3-12.9-.5-22 .5z"></path>
  <path class="st0" d="M349.9 50.2c0-1.8 1.4-3.1 3.2-3.1 1.8 0 3.2 1.3 3.2 3.1s-1.4 3.1-3.2 3.1c-1.8 0-3.2-1.3-3.2-3.1zm5.6 0c0-1.6-1-2.5-2.5-2.5-1.4 0-2.4.9-2.4 2.5 0 1.5 1 2.4 2.4 2.4s2.5-.9 2.5-2.4zm-1 1.5h-1l-.4-.8h-.4v.8h-.9v-3.1h1.3c.8 0 1.3.6 1.3 1.1 0 .4-.2.8-.5 1l.6 1zm-1.3-1.5c.1 0 .4-.1.4-.4 0-.3-.2-.4-.4-.4h-.4v.8h.4z"></path>
</svg>
